<?xml version="1.0" encoding="utf-8"?>
<!-- Generator: Adobe Illustrator 27.3.1, SVG Export Plug-In . SVG Version: 6.00 Build 0)  -->
<svg version="1.1" xmlns="http://www.w3.org/2000/svg" xmlns:xlink="http://www.w3.org/1999/xlink" x="0px" y="0px"
	 viewBox="0 0 640 480" style="enable-background:new 0 0 640 480;" xml:space="preserve">
<style type="text/css">
	.st0{fill:#EBF5FC;}
	.st1{fill:#EEF6FC;}
	.st2{fill:#73A8DD;}
</style>
<g id="Layer_1">
	<g>
		<g>
			<path class="st0" d="M279.59,135.41c0,0.23-0.08,0.41-0.25,0.54s-0.41,0.19-0.73,0.19h-4.61v5.62h3.94
				c0.57,0,0.85,0.24,0.85,0.72c0,0.48-0.28,0.71-0.85,0.71h-3.94v4.22c0,0.8-0.25,1.2-0.76,1.2c-0.5,0-0.75-0.4-0.75-1.2V135.9
				c0-0.8,0.32-1.2,0.96-1.2h5.16c0.32,0,0.56,0.06,0.73,0.18C279.51,135,279.59,135.18,279.59,135.41z"/>
			<path class="st0" d="M283.49,148.48c-0.3,0-0.53-0.06-0.67-0.19c-0.14-0.13-0.21-0.3-0.21-0.52c0-0.24,0.07-0.42,0.21-0.55
				c0.14-0.13,0.37-0.19,0.67-0.19h2.37v-14.07h-1.84c-0.32,0-0.56-0.06-0.72-0.19c-0.16-0.13-0.25-0.3-0.25-0.53
				s0.08-0.41,0.25-0.53c0.16-0.13,0.4-0.19,0.72-0.19h2.31c0.32,0,0.56,0.1,0.72,0.31s0.25,0.5,0.25,0.9v14.32h2.43
				c0.3,0,0.52,0.06,0.67,0.19c0.15,0.13,0.22,0.31,0.22,0.55c0,0.22-0.07,0.4-0.22,0.52c-0.15,0.13-0.37,0.19-0.67,0.19H283.49z"/>
			<path class="st0" d="M297.7,148.71c-0.52,0-1.04-0.11-1.56-0.32s-0.99-0.54-1.42-0.99c-0.43-0.45-0.77-1.03-1.03-1.73
				c-0.26-0.71-0.38-1.54-0.38-2.52c0-0.97,0.13-1.81,0.38-2.51c0.26-0.7,0.6-1.27,1.03-1.72c0.43-0.45,0.9-0.77,1.42-0.99
				c0.52-0.21,1.04-0.32,1.56-0.32c0.52,0,1.04,0.11,1.55,0.32c0.52,0.21,0.99,0.54,1.42,0.99c0.43,0.45,0.77,1.02,1.03,1.72
				c0.26,0.7,0.38,1.54,0.38,2.51c0,0.97-0.13,1.81-0.38,2.52c-0.26,0.71-0.6,1.28-1.03,1.73c-0.43,0.45-0.9,0.78-1.42,0.99
				C298.74,148.61,298.22,148.71,297.7,148.71z M297.7,147.25c0.33,0,0.67-0.07,1-0.22c0.33-0.15,0.64-0.38,0.92-0.71
				c0.28-0.32,0.5-0.75,0.67-1.27c0.17-0.52,0.26-1.16,0.26-1.9c0-0.73-0.08-1.36-0.26-1.88c-0.17-0.52-0.39-0.94-0.67-1.26
				c-0.28-0.33-0.58-0.57-0.92-0.72c-0.33-0.15-0.67-0.23-1-0.23s-0.67,0.08-1.01,0.23c-0.34,0.15-0.65,0.39-0.93,0.72
				c-0.28,0.33-0.5,0.75-0.67,1.26c-0.17,0.52-0.25,1.14-0.25,1.88c0,0.74,0.08,1.38,0.25,1.9s0.39,0.95,0.67,1.27
				c0.28,0.32,0.59,0.56,0.93,0.71S297.37,147.25,297.7,147.25z"/>
			<path class="st0" d="M306.15,148.63c-0.29,0-0.54-0.09-0.73-0.26s-0.32-0.46-0.37-0.85c-0.01-0.09-0.04-0.35-0.09-0.8
				c-0.05-0.44-0.11-0.99-0.17-1.63c-0.07-0.65-0.14-1.32-0.21-2.03c-0.07-0.71-0.14-1.38-0.2-2.02c-0.06-0.63-0.11-1.16-0.15-1.59
				c-0.04-0.42-0.06-0.66-0.06-0.72c0-0.32,0.06-0.57,0.19-0.75c0.13-0.18,0.3-0.27,0.52-0.27c0.26,0,0.44,0.1,0.55,0.31
				s0.18,0.5,0.21,0.89l0.64,7.77l1.47-6.38c0.08-0.39,0.22-0.66,0.41-0.82c0.19-0.16,0.39-0.24,0.61-0.24s0.43,0.08,0.61,0.24
				c0.19,0.16,0.32,0.43,0.41,0.82l1.47,6.3l0.64-7.69c0.02-0.39,0.1-0.68,0.22-0.89c0.12-0.2,0.31-0.31,0.56-0.31
				c0.21,0,0.38,0.09,0.51,0.27c0.12,0.18,0.19,0.43,0.19,0.75c0,0.07-0.02,0.31-0.06,0.72c-0.04,0.42-0.09,0.93-0.15,1.55
				c-0.06,0.62-0.13,1.28-0.2,1.98c-0.07,0.7-0.14,1.37-0.21,2.02c-0.07,0.65-0.12,1.2-0.17,1.65s-0.08,0.75-0.1,0.87
				c-0.04,0.39-0.16,0.68-0.35,0.85s-0.44,0.26-0.73,0.26c-0.36,0-0.63-0.08-0.82-0.24c-0.19-0.16-0.33-0.44-0.4-0.82l-1.42-6.51
				l-1.42,6.51c-0.08,0.39-0.22,0.67-0.4,0.83C306.76,148.55,306.49,148.63,306.15,148.63z"/>
			<path class="st0" d="M319.88,148.71c-0.72,0-1.41-0.2-2.06-0.61c-0.65-0.41-1.18-1.02-1.58-1.85c-0.41-0.82-0.61-1.86-0.61-3.1
				c0-0.94,0.12-1.76,0.36-2.46s0.57-1.27,0.97-1.73c0.41-0.46,0.86-0.8,1.36-1.02s1.02-0.33,1.54-0.33c0.78,0,1.46,0.21,2.05,0.62
				c0.58,0.41,1.04,0.98,1.37,1.7s0.49,1.55,0.49,2.49c0,0.36-0.06,0.63-0.19,0.79s-0.34,0.24-0.63,0.24h-5.83
				c0.03,0.84,0.18,1.54,0.45,2.1c0.27,0.56,0.61,0.98,1.03,1.26c0.42,0.28,0.86,0.42,1.33,0.42c0.63,0,1.13-0.13,1.51-0.39
				s0.68-0.53,0.92-0.8c0.11-0.12,0.22-0.22,0.34-0.29s0.24-0.11,0.37-0.11c0.17,0,0.31,0.06,0.42,0.19s0.16,0.3,0.16,0.52
				c0,0.16-0.04,0.32-0.11,0.46s-0.17,0.28-0.3,0.41c-0.32,0.36-0.76,0.7-1.31,1.01C321.38,148.56,320.7,148.71,319.88,148.71z
				 M317.2,142.03h5.16c-0.08-0.96-0.33-1.7-0.76-2.23c-0.43-0.53-1.01-0.8-1.74-0.8c-0.39,0-0.77,0.11-1.14,0.32
				c-0.37,0.21-0.69,0.54-0.96,0.99S317.3,141.33,317.2,142.03z"/>
			<path class="st0" d="M330.54,147.07h1.66c0.28,0,0.48,0.06,0.61,0.19s0.19,0.3,0.19,0.51c0,0.21-0.06,0.38-0.19,0.51
				c-0.13,0.13-0.33,0.19-0.6,0.19h-4.25c-0.28,0-0.49-0.06-0.62-0.19c-0.13-0.13-0.2-0.3-0.2-0.51c0-0.21,0.06-0.38,0.19-0.51
				s0.31-0.19,0.56-0.19h1.29v-7.79h-1.29c-0.25,0-0.44-0.06-0.58-0.19c-0.13-0.13-0.2-0.3-0.2-0.51c0-0.22,0.08-0.4,0.25-0.52
				c0.16-0.12,0.4-0.18,0.72-0.18h1.4c0.24,0,0.44,0.07,0.61,0.22c0.17,0.15,0.29,0.36,0.35,0.62l0.02,1.04
				c0.36-0.64,0.82-1.15,1.39-1.55c0.57-0.39,1.16-0.59,1.77-0.59c0.36,0,0.68,0.07,0.96,0.22c0.28,0.15,0.42,0.4,0.42,0.76
				c0,0.29-0.07,0.51-0.2,0.67c-0.13,0.16-0.31,0.24-0.53,0.24c-0.12,0-0.23-0.01-0.32-0.04c-0.09-0.03-0.19-0.06-0.29-0.09
				c-0.1-0.03-0.21-0.05-0.32-0.07c-0.11-0.02-0.22-0.03-0.34-0.03c-0.39,0-0.78,0.14-1.16,0.42s-0.69,0.67-0.94,1.16
				c-0.24,0.49-0.37,1.06-0.37,1.69V147.07z"/>
			<path class="st0" d="M341.94,148.71c-0.49,0-0.97-0.06-1.43-0.18c-0.46-0.12-0.88-0.29-1.25-0.5c-0.37-0.21-0.66-0.44-0.88-0.7
				c-0.21-0.26-0.32-0.52-0.32-0.79c0-0.23,0.06-0.41,0.17-0.54c0.12-0.13,0.27-0.19,0.46-0.19c0.11,0,0.23,0.03,0.34,0.09
				c0.11,0.06,0.24,0.15,0.38,0.27c0.19,0.18,0.4,0.35,0.62,0.52s0.49,0.3,0.8,0.41c0.31,0.11,0.68,0.16,1.12,0.16
				c0.67,0,1.21-0.13,1.61-0.4c0.41-0.27,0.61-0.71,0.61-1.31c0-0.36-0.11-0.65-0.33-0.87c-0.22-0.22-0.51-0.41-0.89-0.55
				c-0.37-0.14-0.79-0.27-1.27-0.38c-0.6-0.14-1.15-0.33-1.65-0.56c-0.5-0.23-0.91-0.56-1.21-0.97c-0.3-0.41-0.45-0.96-0.45-1.64
				c0-0.53,0.1-0.98,0.31-1.35c0.21-0.37,0.49-0.67,0.83-0.91c0.35-0.23,0.73-0.41,1.16-0.52s0.86-0.17,1.29-0.17
				s0.86,0.05,1.26,0.14c0.41,0.1,0.77,0.23,1.08,0.41c0.32,0.17,0.57,0.38,0.76,0.62c0.19,0.24,0.28,0.49,0.28,0.77
				c0,0.22-0.06,0.38-0.17,0.5s-0.26,0.18-0.43,0.18c-0.13,0-0.24-0.02-0.33-0.07c-0.1-0.05-0.2-0.12-0.32-0.23
				c-0.17-0.18-0.42-0.37-0.74-0.57c-0.33-0.2-0.78-0.3-1.36-0.3c-0.21,0-0.45,0.02-0.69,0.07c-0.25,0.04-0.48,0.12-0.69,0.24
				c-0.22,0.12-0.39,0.27-0.53,0.47c-0.13,0.2-0.2,0.45-0.2,0.76c0,0.35,0.1,0.63,0.31,0.84c0.21,0.21,0.49,0.38,0.84,0.51
				c0.35,0.13,0.76,0.25,1.21,0.36c0.61,0.15,1.18,0.34,1.71,0.56c0.53,0.23,0.95,0.54,1.27,0.95c0.32,0.4,0.48,0.95,0.48,1.64
				c0,0.73-0.17,1.34-0.52,1.82c-0.35,0.48-0.8,0.84-1.37,1.07C343.24,148.59,342.62,148.71,341.94,148.71z"/>
			<path class="st0" d="M363.36,134.69c0.38,0,0.79,0.05,1.25,0.16c0.46,0.11,0.92,0.3,1.37,0.58c0.46,0.28,0.88,0.68,1.26,1.2
				c0.38,0.52,0.69,1.18,0.92,1.99c0.23,0.81,0.35,1.8,0.35,2.96s-0.12,2.15-0.35,2.96c-0.23,0.81-0.54,1.47-0.92,1.99
				c-0.38,0.52-0.8,0.92-1.26,1.2c-0.46,0.28-0.91,0.48-1.37,0.58c-0.46,0.11-0.88,0.16-1.25,0.16h-2.28c-0.64,0-0.97-0.4-0.97-1.2
				V135.9c0-0.8,0.32-1.2,0.97-1.2H363.36z M363.32,147.03c0.45,0,0.9-0.1,1.33-0.29s0.82-0.5,1.18-0.94
				c0.35-0.43,0.63-0.99,0.84-1.69c0.21-0.69,0.31-1.54,0.31-2.53s-0.1-1.84-0.31-2.53c-0.21-0.69-0.49-1.26-0.84-1.69
				c-0.35-0.43-0.74-0.74-1.18-0.94s-0.88-0.29-1.33-0.29h-1.7v10.89H363.32z"/>
			<path class="st0" d="M378.04,148.51c-0.29,0-0.5-0.08-0.63-0.23c-0.12-0.15-0.2-0.37-0.22-0.64l-0.04-0.59
				c-0.1,0.21-0.29,0.44-0.55,0.7c-0.27,0.26-0.6,0.48-1.01,0.66c-0.4,0.18-0.87,0.27-1.39,0.27c-0.66,0-1.24-0.13-1.76-0.38
				c-0.52-0.26-0.92-0.64-1.22-1.14c-0.3-0.5-0.45-1.13-0.45-1.88c0-0.72,0.16-1.33,0.49-1.83c0.33-0.5,0.77-0.88,1.34-1.14
				c0.57-0.26,1.21-0.4,1.94-0.4c0.38,0,0.74,0.05,1.1,0.14c0.36,0.1,0.67,0.21,0.93,0.34s0.46,0.25,0.57,0.35v-1.59
				c0-0.4-0.07-0.73-0.22-1s-0.35-0.48-0.59-0.64c-0.24-0.16-0.51-0.27-0.81-0.34c-0.29-0.07-0.59-0.1-0.88-0.1
				c-0.39,0-0.78,0.06-1.17,0.17c-0.39,0.11-0.72,0.25-0.99,0.4c-0.09,0.04-0.18,0.08-0.26,0.09s-0.16,0.03-0.22,0.03
				c-0.19,0-0.35-0.06-0.47-0.17c-0.12-0.11-0.18-0.28-0.18-0.48c0-0.19,0.06-0.35,0.18-0.47c0.12-0.12,0.27-0.23,0.44-0.33
				c0.31-0.18,0.72-0.34,1.22-0.47c0.5-0.14,1.05-0.21,1.64-0.21c0.45,0,0.9,0.06,1.34,0.18s0.84,0.31,1.2,0.57
				c0.36,0.26,0.65,0.59,0.87,1.01c0.21,0.42,0.32,0.92,0.32,1.5v6.19h0.79c0.23,0,0.4,0.06,0.51,0.18s0.17,0.29,0.17,0.52
				c0,0.22-0.07,0.39-0.2,0.53c-0.13,0.14-0.36,0.21-0.68,0.21H378.04z M377.14,144.15c-0.12-0.13-0.32-0.27-0.59-0.42
				s-0.58-0.27-0.92-0.37s-0.66-0.15-0.97-0.15c-0.73,0-1.33,0.16-1.78,0.49c-0.45,0.33-0.68,0.84-0.68,1.55
				c0,0.5,0.1,0.91,0.29,1.22c0.19,0.31,0.45,0.53,0.79,0.66s0.72,0.2,1.15,0.2c0.43,0,0.83-0.11,1.21-0.32
				c0.38-0.22,0.7-0.47,0.97-0.76c0.27-0.29,0.45-0.55,0.55-0.77V144.15z"/>
			<path class="st0" d="M383.38,147.03h2.32v-7.72h-1.81c-0.31,0-0.54-0.06-0.7-0.19c-0.16-0.13-0.24-0.3-0.24-0.53
				s0.08-0.41,0.24-0.53c0.16-0.12,0.39-0.18,0.7-0.18h2.34c0.64,0,0.97,0.4,0.97,1.2v7.95h2.24c0.3,0,0.53,0.06,0.68,0.19
				c0.15,0.13,0.22,0.31,0.22,0.55c0,0.22-0.07,0.4-0.22,0.52c-0.15,0.13-0.37,0.19-0.68,0.19h-6.06c-0.3,0-0.52-0.06-0.67-0.19
				c-0.15-0.13-0.22-0.3-0.22-0.52c0-0.24,0.07-0.42,0.22-0.55C382.86,147.09,383.08,147.03,383.38,147.03z M385.12,133.52
				c0-0.29,0.06-0.55,0.17-0.8s0.27-0.43,0.46-0.57c0.2-0.14,0.42-0.21,0.65-0.21c0.24,0,0.46,0.07,0.65,0.21
				c0.19,0.14,0.35,0.33,0.46,0.57s0.17,0.51,0.17,0.8c0,0.3-0.06,0.57-0.17,0.81c-0.11,0.24-0.27,0.44-0.46,0.58
				c-0.19,0.14-0.41,0.21-0.65,0.21c-0.24,0-0.46-0.07-0.65-0.21c-0.2-0.14-0.35-0.33-0.46-0.58
				C385.17,134.09,385.12,133.82,385.12,133.52z"/>
			<path class="st0" d="M394.26,148.48c-0.3,0-0.53-0.06-0.67-0.19c-0.14-0.13-0.21-0.3-0.21-0.52c0-0.24,0.07-0.42,0.21-0.55
				c0.14-0.13,0.37-0.19,0.67-0.19h2.37v-14.07h-1.84c-0.32,0-0.56-0.06-0.72-0.19c-0.16-0.13-0.25-0.3-0.25-0.53
				s0.08-0.41,0.25-0.53c0.16-0.13,0.4-0.19,0.72-0.19h2.31c0.32,0,0.56,0.1,0.72,0.31s0.25,0.5,0.25,0.9v14.32h2.43
				c0.3,0,0.52,0.06,0.67,0.19c0.15,0.13,0.22,0.31,0.22,0.55c0,0.22-0.07,0.4-0.22,0.52c-0.15,0.13-0.37,0.19-0.67,0.19H394.26z"/>
			<path class="st0" d="M405.91,153.77c-0.6,0-0.89-0.24-0.89-0.71c0-0.24,0.07-0.42,0.21-0.53c0.14-0.12,0.38-0.2,0.7-0.23
				c0.31-0.04,0.57-0.19,0.78-0.46s0.42-0.67,0.61-1.21c0.2-0.54,0.42-1.24,0.67-2.09l0.04-0.12c-0.4-0.06-0.67-0.36-0.81-0.9
				l-2.4-8.43c-0.05-0.18-0.07-0.33-0.07-0.46c0-0.27,0.07-0.49,0.21-0.65c0.14-0.16,0.31-0.23,0.51-0.23
				c0.25,0,0.43,0.08,0.55,0.25s0.23,0.42,0.31,0.77l2.17,7.77l2.17-7.73c0.08-0.34,0.19-0.6,0.31-0.79
				c0.12-0.19,0.31-0.28,0.58-0.28c0.2,0,0.36,0.07,0.49,0.22c0.13,0.15,0.19,0.36,0.19,0.62c0,0.07,0,0.14-0.01,0.22
				s-0.03,0.17-0.06,0.27l-2.64,9.41c-0.27,0.96-0.52,1.77-0.76,2.45c-0.24,0.68-0.49,1.22-0.75,1.64
				c-0.26,0.42-0.56,0.72-0.89,0.91C406.78,153.67,406.38,153.77,405.91,153.77z"/>
		</g>
	</g>
	<g>
		<g>
			<g>
				<g>
					<g>
						<path class="st1" d="M424.22,148.63c0.05-0.11-0.06-0.28-0.27-0.17l-0.05,0.36L424.22,148.63z"/>
						<path class="st1" d="M422.54,148.5c-0.22,0.22-0.45,0.58-0.2,0.83c0.18-0.38,0.28-0.27,0.46-0.71
							c0.21-0.09,0.42-0.01,0.42,0.12c0.05-0.11,0.37-0.04,0.42-0.28c-0.37-0.15-0.72-0.04-1.05,0.26
							C422.49,148.67,422.54,148.57,422.54,148.5z"/>
						<path class="st1" d="M400.56,152.74l0.15-0.01C400.67,152.72,400.62,152.72,400.56,152.74z"/>
						<path class="st1" d="M387.2,155.04c0.1-0.01,0.15-0.04,0.15-0.07C387.26,154.99,387.18,155.01,387.2,155.04z"/>
						<path class="st1" d="M384.93,154.55c0.05,0.01,0.09,0.02,0.13,0.04C385.01,154.55,384.96,154.53,384.93,154.55z"/>
						<path class="st1" d="M400.56,152.74l-0.38,0.02C400.19,152.87,400.38,152.78,400.56,152.74z"/>
						<path class="st1" d="M419.69,149.97c0.07-0.03,0.13-0.07,0.18-0.13l-0.18,0.07C419.69,149.94,419.69,149.95,419.69,149.97z"/>
						<path class="st1" d="M406.41,150.74l0.11-0.03c0.02-0.04,0.04-0.1,0.06-0.15L406.41,150.74z"/>
						<path class="st1" d="M411.03,149.77c-0.11,0.01-0.09,0.29-0.11,0.42c0.04-0.12,0.11-0.19,0.2-0.23
							C411.11,149.9,411.08,149.84,411.03,149.77z"/>
						<path class="st1" d="M418.44,149.04l0.12-0.06C418.53,149,418.48,149.03,418.44,149.04z"/>
						<path class="st1" d="M403.11,151.55c-0.02-0.04-0.05-0.07-0.07-0.08C403.05,151.5,403.07,151.53,403.11,151.55z"/>
						<path class="st1" d="M275.22,151.55c0-0.02-0.01-0.03-0.02-0.05C275.19,151.54,275.19,151.56,275.22,151.55z"/>
						<path class="st1" d="M269.96,152.94l0.05-0.05c-0.02-0.05-0.05-0.1-0.07-0.14L269.96,152.94z"/>
						<path class="st1" d="M380.86,153.55c0.01,0,0.01,0.01,0.02,0.01C380.99,153.55,380.93,153.54,380.86,153.55z"/>
						<path class="st1" d="M341.58,150.79c0.43,0.28-0.76,0.27-0.1,0.6C341.42,151.27,342.13,150.99,341.58,150.79z"/>
						<path class="st1" d="M419.56,149.96c-0.06,0.02-0.13,0.03-0.19,0.04C419.46,149.99,419.52,149.98,419.56,149.96z"/>
						<path class="st1" d="M341.48,151.38L341.48,151.38l0.07,0.03C341.52,151.4,341.5,151.39,341.48,151.38z"/>
						<path class="st1" d="M370.97,151.28c0.02,0.05,0.06,0.09,0.1,0.12C371.07,151.37,371.05,151.34,370.97,151.28z"/>
						<path class="st1" d="M378.34,153.47l-0.16-0.09C378.24,153.43,378.29,153.45,378.34,153.47z"/>
						<path class="st1" d="M366.99,151.91c-0.1-0.01-0.14-0.04-0.28,0.01c0.01,0.01,0.03,0.02,0.05,0.03
							C366.81,151.91,366.87,151.88,366.99,151.91z"/>
						<path class="st1" d="M362.99,152.55c0.02,0.02,0.05,0.03,0.08,0.04c0.04-0.01,0.08-0.02,0.12-0.04L362.99,152.55z"/>
						<path class="st1" d="M286.22,152.32c-0.06-0.1-0.09-0.2-0.11-0.29C286.12,152.23,285.53,152.13,286.22,152.32z"/>
						<path class="st1" d="M419.66,149.82c-0.01,0.07-0.04,0.12-0.1,0.14l0.13-0.04C419.7,149.88,419.69,149.84,419.66,149.82z"/>
						<path class="st1" d="M367.12,154.13l-0.62,0.05C366.67,154.18,366.9,154.17,367.12,154.13z"/>
						<path class="st1" d="M314.88,155.4l-0.15,0.05C314.79,155.45,314.85,155.43,314.88,155.4z"/>
						<path class="st1" d="M364.67,154.51c-0.13-0.08-0.25-0.12-0.38-0.13c-0.02,0.03-0.05,0.05-0.06,0.08L364.67,154.51z"/>
						<path class="st1" d="M286.12,152.02L286.12,152.02L286.12,152.02z"/>
						<path class="st1" d="M281.96,151.5c0.56,0.16,0.36-0.28,0.53-0.45c0.71,0.08,0.24,0.35,0.42,0.59
							c0.45,0.02,0.88-0.2,1.19-0.09c0.01,0.07,0.06,0.11-0.03,0.16c0.54-0.15,1.36,0.4,2,0.2c0.03,0.04,0.04,0.08,0.04,0.11
							c-0.03-0.2,0.01-0.39,0.06-0.51c0.26,0.07,0.55-0.08,0.58,0.18c-0.16-0.05-0.2,0.04-0.3,0.09l0.3-0.02
							c0.15,0.41-0.41,0-0.48,0.25c0.57,0.05,1.27-0.04,1.66,0.17c-0.01,0.36-1-0.17-0.53,0.28l-0.6-0.31
							c0.34,0.66-0.38-0.15-0.09,0.53c0.81,0.34,0.99,0.1,1.81,0.43c0.24-0.13,0.01-0.29,0.25-0.42c1.28,0,0.74,1.07,1.74,0.86
							c0.29-0.17,0.45-0.55,1.07-0.19l-0.32,0.33c0.92,0.19,0.61-0.41,1.52-0.06c-0.18,0.14-0.73,0.05-0.6,0.11
							c0.59,0.38,0.47-0.17,0.94-0.12l0.08,0.35c1,0,2.05-0.31,3.05-0.51c-0.04,0.11-0.21,0.23,0.05,0.31
							c1.26-0.35,2.68-0.42,3.82-0.32l0.4-0.33c0.1-0.01,0.19,0.12,0.09,0.18c0.43,0.09,0.01-0.19,0.21-0.31
							c0.25-0.03,0.33,0.15,0.18,0.25c0.73-0.3,2.22-0.49,2.93,0.03l-0.17,0.05c0.57,0.22,0.83-0.39,1.33,0.02l-0.12,0.02
							c0.64,0.28,1.28,0.53,2.04,0.84c0.36,0.15,0.71,0.29,1.04,0.42c0.33,0.15,0.63,0.31,0.9,0.47c0.16-0.18,0.53-0.03,0.89,0.05
							c0.37,0.08,0.72,0.14,0.81-0.14c0.85,0.37,0.59,0.5,1.87,0.72c0.35,0.04,0.51-0.36,0.92-0.45l0.02,0.31l0.55-0.35l0.33,0.34
							l0.38-0.12c-0.16,0-0.34-0.1-0.33-0.19c0.58-0.19,1.48,0.01,1.53,0.17c0.46-0.17,0.91-0.34,1.34-0.54
							c0,0.13-0.22,0.23-0.39,0.34c0.67-0.47,0.21,0.29,0.82-0.15c-0.11-0.05,0.01-0.19,0.01-0.25c0.38,0.1,1.13-0.1,1.66-0.33
							l-0.05,0.23c1-0.22,2.03-0.72,3.04-0.93c-0.39-0.02-0.39-0.39-0.09-0.49l0.19,0.29c0.16-0.24-0.35-0.05,0.01-0.38
							c0.4-0.05,0.33,0.31,0.13,0.46c0.14-0.08,0.3-0.13,0.46-0.2c0.05,0.09-0.06,0.16-0.07,0.29c0.17-0.23,0.88,0.18,1.12-0.21
							l0.04,0.09c1.08-0.14,1.56-0.3,2.46-0.4c-0.01-0.28,0.35-0.26,0.6-0.5c0.68,0.05,1.42,0.2,2.23,0.16
							c0.56-0.16,0.15-0.24,0.4-0.42c0.05,0.25,0.85,0.2,0.44,0.4c0.96-0.08,1.23-0.08,2.45-0.31c-0.13-0.1-0.28-0.15-0.21-0.23
							c0.22-0.05,0.51,0.1,0.48,0.23l-0.06,0.03c1.38-0.39,3.16,0.78,4.26,0.28l-0.06,0.02l1.15-0.22c0.52,0.07-0.32,0.18,0.06,0.35
							c1.25-0.38,1.92,0.18,2.95-0.03c0.71,0.82,2.76,0.2,3.74,0.82l-0.04-0.18c0.29-0.14,0.31,0.14,0.5,0.21
							c-0.01-0.14-0.27-0.19-0.09-0.27c2.31,0.09,4.65,0.96,6.85,1.68c0.9,0.24,0.72-0.79,1.81-0.15l-0.39,0.27
							c1.97-0.08,3.92,0.23,5.68-0.31c-0.1,0.09-0.09,0.19-0.26,0.2c0.41,0.21,1.39-0.15,1.36-0.35c0.28-0.02,0.09,0.17,0.27,0.24
							c0.4,0.09,0.88-0.44,1.11-0.24c0.04,0.03-0.09,0.09-0.15,0.12c0.22-0.15,1.12-0.15,0.84-0.39c0.67,0.02,1.2-0.33,1.74-0.26
							c0.28-0.36,1.11-0.03,1.14-0.48c0.03,0.45,1.16,0.19,1.53-0.07c-0.11,0.15,0.36,0.09,0.23,0.3c0.45-0.06,0.85-0.18,0.74-0.41
							c0.87,0.43,1.64-0.56,2.13,0.11c1.29-0.28,2.5-0.31,3.67-0.16c-0.14,0.43-1.27-0.19-1.29,0.28c0.53,0.02,0.98-0.07,1.42-0.06
							c0.44,0.04,0.84,0.06,1.39,0.33c0.27,0.16-0.24,0.12-0.36,0.16c0.61,0.12,1.15,0.33,1.69,0.52c0.54,0.18,1.08,0.33,1.63,0.37
							c-0.01,0.04-0.14,0.05-0.25,0.05c0.21,0.05,0.46,0.21,0.49,0.01l-0.21-0.01c-0.24-0.37,0.98-0.37,1.05-0.52
							c-0.5,0.48,0.99,0.4,0.26,0.98c0.15,0,0.34-0.05,0.34-0.19c0.19,0.09,0.24,0.18,0,0.28c0.77,0.07,0.55-0.22,1.23-0.07
							c-0.02,0.1-0.17,0.11-0.26,0.21c0.39-0.12,0.76-0.23,1.32-0.05c-0.04,0.05,0.01,0.14-0.16,0.11c1,0.12,1.76-0.24,2.82,0.04
							c-0.36,0.4,0.36,0.18,0.39,0.56l0.6-0.08l-0.23-0.19c0.52,0.03,0.98-0.21,1.42-0.08l-0.39,0.14c0.32,0,0.65-0.03,0.97-0.06
							l-0.55-0.14c0.52-0.19-0.05-0.47,0.63-0.37c-0.14,0.04,0.51,0,0.78,0.22l0,0c0.25-0.12,0.5-0.27,0.88-0.19
							c0.1,0.11-0.06,0.42,0.01,0.49c0.24-0.32,1.2-0.15,1.49-0.53c-0.1,0.09-0.09,0.28-0.05,0.32l0.19-0.27
							c0.24,0.06,0.28,0.09,0.26,0.25c0.72-0.03-0.28-0.44,0.59-0.33c-0.06,0.03-0.03,0.07-0.16,0.12c0.86-0.01,1.61-0.38,2.39-0.41
							c0.3,0.33-0.66,0.22-0.34,0.48c1.12-0.27,2.21-0.9,3.28-1.11l-0.21,0.01c0-0.56,0.85,0.05,1.31-0.36
							c-0.12,0.08-0.08,0.34-0.07,0.27c0.74-0.15,1.43-0.58,2.43-1.12l-0.09,0.17c0.46-0.04,1.1-0.31,1.56-0.41
							c0.09-0.17,0.34-0.24,0.13-0.37c1.58,0.29,2.5-1.2,3.91-0.88c-0.15,0.04-0.32,0.2-0.21,0.17l1.02-0.37
							c-0.14-0.21-0.17-0.1-0.43-0.23c0.1-0.16,0.38-0.34,0.64-0.4c-0.44,0.26,0.09,0.36,0.32,0.44c-0.05-0.06,0-0.15-0.03-0.22
							c0.64,0.28-0.01-0.47,0.82-0.36l-0.02,0.13c0.27-0.12,0.5-0.34,0.82-0.36c0.18,0.24-0.28,0.18-0.26,0.4
							c0.43-0.1,0.76-0.66,1.2-0.48c-0.17,0.11-0.43,0.16-0.6,0.27c0.49,0.23,0.52,0.14,0.85,0.13l-0.03,0l0.76,0.01l-0.2-0.05
							c0.42-0.78,1.08-0.32,1.74-0.89c-0.64,0.54-0.08,0.27-0.08,0.57c0.2,0.05,0.5,0.1,0.43,0.2c0.31-0.3,0.61,0.09,1.04-0.34
							c0.04,0.09,0.37-0.05,0.33,0.2c0.44-0.15-0.13-0.15-0.12-0.28c0.64-0.44,1.7,0.14,2.64-0.48c0.84-0.33,0.94-0.67,1.71-0.98
							c0.3,0.11-0.16,0.39-0.16,0.39c0.46,0.06,0.79-0.02,1.18-0.21c-0.07,0.1,0.03,0.15,0.18,0.24c0.33-0.09,0.15-0.39,0.62-0.34
							c-0.05,0.12-0.11,0.31-0.25,0.45c0.37-0.17,0.72-0.42,1.11-0.6c0.14,0.14-0.19,0.31-0.31,0.45c0.44-0.18,1.15-0.42,1.22-0.71
							l-0.31-0.03c0.16-0.05,0.14,0.21,0.03,0.28c-0.34,0.29-0.58,0.04-0.62-0.05l0.27-0.13c-0.42-0.48-1.12,0.34-1.71,0.42
							l0.16-0.46l-0.53,0.46c-0.15-0.08-0.27-0.3,0-0.41c-0.45-0.13-0.34,0.21-0.73,0.05c-0.05-0.03-0.03-0.05,0-0.07l-0.38,0.19
							c0.06-0.1-0.12-0.28,0.14-0.26c-0.76-0.11-1.12,0.5-1.44,0.24l0.06-0.04c-0.98,0.31-0.05,0.32-0.75,0.79l-0.63-0.66
							l-0.05,0.32c-0.11,0.01-0.32,0.02-0.3-0.11c-0.35,0.27,0.09,0.12-0.11,0.35c-0.54-0.19-1.36,0.35-1.55-0.11
							c-0.14,0.26,0.51,0.1,0,0.34c-0.24-0.49-0.6,0.19-1.1,0.03c0.1-0.29,0.55-0.22,0.06-0.38c-0.2,0.49-0.91,0.05-1.28,0.21
							c0.04,0.36-0.81,0.29-1.44,0.54c0.02-0.13-1.25,0.03-1.88,0.04l0.01-0.06c-0.04,0.39-0.68,0.44-1.11,0.62
							c-0.03-0.22,0.03-0.32,0.25-0.47l-0.42,0.1c-0.07,0.14-0.19,0.23-0.46,0.34l0.04-0.29c-0.56,0.14-1.06,0.59-1.82,0.61
							c0.03,0.26,0.75,0.54,0.05,0.9c-0.06-0.13-0.16-0.35,0.03-0.45c-0.06,0.04-0.2,0.17-0.35,0.15l0.24-0.31
							c-0.35-0.01-0.12,0.23-0.38,0.28c-0.05-0.19-0.23-0.08-0.24-0.24c0.06-0.04,0.25,0.01,0.33-0.09
							c-0.31,0.04-0.69,0.05-0.85-0.06c0.06,0.1,0.08,0.25-0.13,0.34c-0.55,0.18-0.26-0.17-0.62-0.17
							c-0.09,0.17-0.49,0.15-0.41,0.43c-0.16,0.05-0.23-0.07-0.32-0.12c-0.24,0.22-1.32,0.5-0.89,0.68l0.08-0.01l-0.04,0.03l0,0l0,0
							c-0.82,0.6-1.94,0.52-2.82,0.91l-0.03-0.1c-0.51,0.29-1.2,0.41-1.54,0.73c-0.16,0.05-0.43-0.07-0.39-0.21
							c-0.4,0.17-0.43,0.29-1.08,0.27c0.39-0.27-0.18-0.11,0.41-0.22c-0.57,0.04-0.72-0.07-1.26,0.3c0.15-0.29-0.47-0.23-0.72-0.11
							l0.42,0.1c-0.29,0.09-0.55,0.12-0.82,0.14l0.09-0.35c-0.59-0.12-1.07,0.13-1.53,0.33c-0.46,0.18-0.9,0.33-1.36,0.04
							c-0.28,0.26,0.63,0.1,0.38,0.4c-0.53,0.02-1.11-0.45-1.27-0.44c-0.72-0.15-0.65,0.53-1.41,0.4c0.1,0.12,0.19,0.44-0.38,0.55
							c-0.54-0.04-0.64-0.5-0.31-0.59c0.13-0.01,0.19,0.03,0.18,0.07c0.17-0.04,0.39-0.09,0.19-0.22l-0.07,0.12
							c-0.26-0.11-0.98-0.13-0.8-0.32c-0.4,0.09-0.18,0.19,0.12,0.26c-0.66-0.21-1.05-0.04-1.73-0.22c0.1,0.08,0.19,0.23,0.08,0.21
							c-1-0.25-0.47,0.18-1.17,0.16c-0.37-0.23,0.19-0.4-0.52-0.35c-0.4-0.19-0.04-0.33,0.13-0.4c-0.65,0.13-1.13-0.31-1.47-0.43
							c0.11-0.01,0.23-0.02,0.34-0.04c-0.2,0.03-0.36-0.01-0.52-0.04l0.14,0.27c-0.18-0.08-0.34-0.11-0.32-0.21
							c-0.23,0.11,0.08,0.42-0.36,0.55c-0.23-0.17-0.81-0.03-0.83-0.36c0.78,0.27-0.02-0.33,0.67-0.24c-0.14,0.01-0.3-0.02-0.48-0.1
							c-0.02-0.04,0.04-0.06,0.1-0.07c-0.69-0.45-0.43,0.26-1.21,0.06c0.14-0.15-0.1-0.37-0.23-0.37c0.31,0.08,0.08,0.32-0.25,0.38
							c-0.47-0.26-0.57-0.06-0.83-0.15l0.28,0.15c-0.15,0.14-0.4,0.04-0.76-0.02c0.01-0.14,0.35,0.01,0.24-0.09
							c-0.48,0.17-0.78-0.57-1.37-0.57c-0.21-0.2,0.09-0.32-0.1-0.48c-0.69,0-0.5-0.45-1.29-0.51c0.13,0.29,0.18,0.24-0.39,0.31
							c0.41,0.07,0.8,0.14,1.15,0.21l-0.8,0.09c0.34,0.11,0.72,0.1,0.9,0.2c-0.38,0.07-0.33,0.02-0.25,0.26
							c-0.29-0.49-0.94-0.11-1.39-0.5l0.19-0.56c-0.38-0.27-0.79-0.28-1.22-0.26c-0.43,0.01-0.88,0.02-1.42-0.08l0.34,0.13
							c-0.17,0.22-0.68-0.03-1.04,0.04c0.04-0.2-0.18-0.29-0.32-0.4c0.02,0.15-0.81-0.02-0.9,0.38c-0.16-0.09-0.33-0.18-0.49-0.25
							c-0.88-0.04-0.96,0.6-1.77,0.63c0.22-0.24-0.16-0.34,0.37-0.55c-0.28,0.03-0.53,0.02-0.52,0.16c-0.18-0.1-0.73,0.34-1,0.2
							c-0.1,0.1-0.11,0.31-0.42,0.34c-0.04-0.03-0.01-0.1-0.01-0.1c0.01,0.1-0.45,0.2-0.16,0.38c-0.93-0.5-2.3,0.42-3.1,0.02
							c-0.57,0.17-1.25,0.34-1.78,0.44c0.02-0.06-0.01-0.1,0.09-0.09c-0.75-0.07-0.36,0.63-1.21,0.55
							c-0.46-0.26,0.41-0.23,0.13-0.32c-0.2-0.62-0.98,0.23-1.57-0.1l0.13-0.05c-0.44-0.16-0.99,0.34-1.68,0.33c0,0,0.03-0.06,0-0.1
							c-0.45,0.35-1.35,0.48-2.02,0.5c0.22-0.24,0.31-0.11,0.2-0.38c-0.29,0.01,0.06,0.42-0.54,0.44c-0.18-0.16-0.59-0.31-0.6-0.6
							c0.18,0.03,0.36,0.03,0.54,0.04c-0.24-0.36-0.69-0.06-0.96-0.19l0.06-0.15c-0.79-0.1-0.92,0.28-1.84,0.03l0.07,0.14
							c-0.59,0.26-0.38-0.31-0.94-0.14l-0.07-0.42c-0.36,0.01-1.26,0.15-1.87,0.1c0.39-0.22,1.13-0.24,1.61-0.32
							c-0.34-0.07-1.15-0.19-1.36-0.03c0.14-0.01,0.33-0.07,0.45,0.01c-0.47,0.23-1.03,0.26-1.7,0.16c0.24-0.73-1.71-0.47-2.12-1.11
							c-1.23,0.13-2.36-0.42-3.76-0.5c0.44,0.64-0.41-0.02-0.38,0.59c-0.33,0.01-0.45-0.01-0.47-0.05l-0.95-0.44
							c-0.22-0.19,0.32-0.11,0.3-0.25c-0.71-0.1-0.28-0.28-0.74-0.48c0.08,0.23-0.27,0.29-0.67,0.18l0.56,0.32
							c-1.01,0.25-0.83-0.56-1.86-0.29l0.33-0.18c-0.52,0.08-1.91-0.09-2.43,0.4c-0.09-0.07-0.21-0.24,0.02-0.28
							c-1.24-0.12-2.75,0.48-3.71,0.19l0.09-0.15c-0.23,0.05-0.4,0.29-0.69,0.14c0.01-0.06,0.09-0.15-0.02-0.16
							c-0.12,0.05-0.61,0.27-0.91,0.19l0.26-0.17c-1.21-0.16-1.84,0.47-2.83,0.63c-0.02-0.44-0.98-0.52-1.47-0.56l0.01-0.06
							c-1.42,0.07-2.37,0.59-3.64,0.97c-0.44-0.18-1.15-0.1-1.93,0.07c-0.75,0.17-1.52,0.4-2.17,0.45c0.21,0.02,0.06,0.34-0.14,0.44
							c-0.31-0.01-0.71,0.52-0.77,0.11l0.1-0.02c-0.32-0.33-0.87-0.06-1.32,0.02l0.05,0.53c-0.68-0.23-1.43-0.02-2.12,0.16
							c-0.69,0.17-1.34,0.3-1.67-0.03c-0.28,0.16-0.63,0.13-0.91,0.26l0.02-0.28c-0.77-0.1-1.14-0.17-2.08-0.26l0.23-0.17
							c-0.51-0.1-0.82,0.66-1.34,0.56l-0.04-0.45c-0.45-0.15-0.88-0.35-1.3-0.59c-0.21-0.11-0.42-0.2-0.66-0.28
							c-0.27-0.09-0.54-0.15-0.83-0.16c0.04-0.05,0.11-0.15,0.29-0.1c-0.46-0.25-1.89-0.92-1.84-0.31c0.08-0.36-1.13-0.31-1.74-0.17
							l0.12-0.27c-0.55,0.3-0.56,0.38-1.25,0.47c-0.16-0.04-0.14-0.23,0.08-0.15c-0.55-0.16-0.42,0.25-1.08,0.13l0.24-0.19
							c-0.56,0-0.51,0.09-0.8,0.33c-0.33,0.14-1.03,0.04-1.15-0.19c-0.05,0.16-0.32,0.4-0.64,0.38c-0.06-0.09,0.05-0.16,0.1-0.2
							c-0.92-0.05-1.26,0.54-1.9,0.36c-0.03-0.09-0.07-0.13-0.12-0.15c0.68-0.1,1.25-0.18,1.2-0.15c-0.04-0.25-0.61-0.21-0.22-0.63
							c-0.42,0.27-1.11,0.81-1.66,0.75c-0.03-0.02-0.06-0.04-0.08-0.08l0.05-0.03c-0.12-0.01-0.23,0.02-0.33,0.08
							c-0.17-0.02-0.28-0.04-0.44-0.03c-0.08-0.21-0.61-0.07-0.86-0.08c0.03,0.28-0.32,0.23,0.01,0.47
							c-0.04-0.02,0.05-0.03,0.23-0.05c0.04-0.01,0.09-0.02,0.11-0.04l-0.02,0.03c0.18-0.02,0.4-0.04,0.66-0.06
							c-0.2,0.16-0.42,0.29-0.72,0.15c-0.13,0.19-0.28,0.38-0.37,0.46c-0.19-0.2-0.46-0.35-0.69-0.49
							c-0.22-0.15-0.41-0.28-0.44-0.41c-0.4,0.06-0.85-0.02-1.29-0.02c-0.47-0.04-0.91-0.03-1.23,0.16
							c-0.25,0.01-0.24-0.21-0.3-0.32c0.15-0.02,0.31,0.03,0.4-0.02c-0.51,0.02-1.41-0.31-1.62,0.02c-0.55-0.32,0.42-0.24-0.41-0.4
							l0.14-0.08c-1.44-1.01-2.86,0.15-4.44-1.11c0.11,0.08,0.17,0.12,0.18,0.19c-0.97-0.47-2.07-0.69-3.18-0.87
							c-1.13-0.15-2.23-0.23-3.38-0.39c-0.65-0.03-0.69,0.23-1.03,0.47l-0.2-0.27c-0.19,0.16-0.37,0.34-0.55,0.51
							c-0.41,0.23-0.83,0.18-1.28,0.2c-0.46,0-0.95,0.06-1.35,0.55l0.22,0.12c-0.39,0.14-1.1,0.69-1.15,0.46
							c-0.02,0.05-0.01,0.25-0.2,0.24l-0.09-0.13l-0.73,0.74c-0.71,0.31-0.23-0.6-1.2-0.01c-0.32,0.28-0.75,1.04-0.56,1.04
							c0.15-0.09,0.42-0.15,0.51-0.03l-0.27,0.28c0.2,0.42,0.24,0.97,1.18,0.75l0.37-0.58l0.29,0.08l-0.44,0.3
							c0.37,0.01,0.42-0.25,0.53-0.47c0.11,0.08,0.22,0.09,0.35,0.07l0.3-0.69c0.16,0.12-0.05,0.45,0.35,0.33
							c0.14-0.32-0.44-0.21-0.1-0.57c0.36,0.03,0.37,0.23,0.59-0.11c0.1,0.08,0.07,0.19-0.02,0.3c0.2-0.29,0.69-0.42,0.72-0.72
							c0.38,0.09,0.91-0.51,1.06-0.07c0.04-0.13,0.36-0.51,0.62-0.63c-0.3,0.64,0.98-0.26,1,0.33c0.23-0.57,1.18-0.46,1.79-0.72
							c-0.03,0.04-0.1,0.12-0.16,0.1c0.36,0.02,0.45,0.15,0.68,0.26c0.06-0.38,0.62-0.46,0.97-0.65c0.4,0.45-0.33,0.41-0.23,0.8
							c0.01-0.32,0.81-0.19,0.7-0.48c0.31,0.29,0.28,0.15,0.39,0.51c0.16-0.47,0.34-0.01,0.69-0.24c0.45,0.35,0.02,0.46,0.61,0.47
							C282.49,151.47,281.96,151.5,281.96,151.5z M296.26,153.36L296.26,153.36c-0.12,0.03-0.23,0.05-0.3,0.06
							C296.02,153.41,296.11,153.39,296.26,153.36z M297.46,153.17c-0.15,0.01-0.32,0.04-0.52,0.07c-0.06-0.09-0.03-0.2,0.09-0.21
							C296.98,153.11,297.27,153.12,297.46,153.17z M294.76,151.55c0.17-0.05,0.23,0,0.26,0.06c-0.08,0.01-0.18,0.02-0.3,0.05
							l-0.02,0.04C294.71,151.64,294.73,151.59,294.76,151.55z"/>
						<path class="st1" d="M294.46,151.94c-0.03,0.01-0.04,0.02-0.07,0.03c0.04,0.02,0.07,0.04,0.11,0.06l0.06-0.09
							C294.53,151.93,294.49,151.93,294.46,151.94z"/>
						<path class="st1" d="M400.74,152.72l-0.03,0c0.02,0,0.05,0.01,0.06,0.02C400.76,152.74,400.75,152.73,400.74,152.72z"/>
						<polygon class="st1" points="313.48,155.65 313.47,155.58 313.37,155.65 						"/>
						<path class="st1" d="M407.31,151.85c0.02,0.02,0.05,0.04,0.1,0.05C407.4,151.88,407.36,151.87,407.31,151.85z"/>
						<path class="st1" d="M410.09,151.35l0.41,0.03C410.32,151.35,410.19,151.35,410.09,151.35z"/>
						<path class="st1" d="M412.25,151.12c0.02-0.05,0.02-0.09,0.02-0.13l0,0L412.25,151.12z"/>
						<path class="st1" d="M377.95,155.32c-0.03-0.01-0.06-0.01-0.09-0.01C377.65,155.3,377.79,155.32,377.95,155.32z"/>
						<path class="st1" d="M388.44,156.11c-0.11,0.05-0.22,0.1-0.33,0.13C388.29,156.26,388.44,156.27,388.44,156.11z"/>
						<polygon class="st1" points="367.18,154.13 367.18,154.12 367.12,154.13 						"/>
						<path class="st1" d="M387.62,156.24c0.19,0.06,0.34,0.04,0.49,0C387.95,156.22,387.77,156.19,387.62,156.24z"/>
						<path class="st1" d="M421.63,149.59l0.11-0.01c-0.01-0.02,0-0.03,0-0.05L421.63,149.59z"/>
						<path class="st1" d="M421.74,149.53l0.11-0.06C421.8,149.48,421.75,149.49,421.74,149.53z"/>
						<path class="st1" d="M422.08,149.34l-0.23,0.13C421.93,149.45,422.04,149.43,422.08,149.34z"/>
						<path class="st1" d="M418.73,150.04l-0.01,0.11C418.73,150.13,418.74,150.09,418.73,150.04z"/>
						<path class="st1" d="M417.87,150.23c0.21-0.01,0.56,0.12,0.84,0.01l0.01-0.08C418.61,150.32,418.04,150.03,417.87,150.23z"/>
						<path class="st1" d="M414.05,149.57l0.74-0.04c-0.14-0.09-0.33-0.2-0.01-0.28C413.81,149.08,415,149.46,414.05,149.57z"/>
						<path class="st1" d="M411.77,149.79c0.38-0.11-0.03-0.15-0.02-0.22C411.51,149.71,411.46,149.74,411.77,149.79z"/>
						<path class="st1" d="M395.82,154.03l-0.02-0.26C395.52,153.87,395.82,153.87,395.82,154.03z"/>
						<path class="st1" d="M393,155.95l0.33,0.11l0.1-0.26C393.28,155.86,393.14,155.9,393,155.95z"/>
						<polygon class="st1" points="390.93,154.38 391.05,154.33 390.57,154.47 						"/>
						<path class="st1" d="M363.66,152.19l0.14,0.29C363.99,152.39,363.98,152.03,363.66,152.19z"/>
						<path class="st1" d="M352.17,152.82c-0.09-0.18-0.4-0.36-0.64-0.25C351.79,152.64,352.03,152.82,352.17,152.82z"/>
						<polygon class="st1" points="316.3,152.74 316.5,152.59 316.1,152.76 						"/>
					</g>
				</g>
			</g>
		</g>
	</g>
</g>
<g id="Layer_2">
	<g>
		<g id="_x3C_Radial_Repeat_x3E__00000015355483806445378130000007291444327177131190_">
			<path class="st2" d="M424.54,146.15c-0.95-0.74-0.91-3.59-0.26-3.79c0.64-0.19,2.27,2.08,1.93,3.24
				c-0.08,0.29-0.32,0.6-0.64,0.72C425.21,146.46,424.8,146.35,424.54,146.15z"/>
		</g>
		<g id="_x3C_Radial_Repeat_x3E__00000000935349038022622130000005821371342405339825_">
			<path class="st2" d="M420.58,146.21c-0.4-1.14,1.18-3.51,1.83-3.33c0.64,0.18,0.78,2.97-0.13,3.77c-0.23,0.2-0.59,0.33-0.93,0.26
				C420.98,146.84,420.69,146.53,420.58,146.21z"/>
		</g>
		<g id="_x3C_Radial_Repeat_x3E__00000054973865211580227110000002238017059090042557_">
			<path class="st2" d="M417.22,144.13c0.28-1.17,2.89-2.32,3.33-1.81c0.44,0.5-0.95,2.92-2.14,3.1c-0.3,0.05-0.67-0.04-0.92-0.28
				C417.22,144.88,417.14,144.46,417.22,144.13z"/>
		</g>
		<g id="_x3C_Radial_Repeat_x3E__00000086669054829268441040000012293854294272853162_">
			<path class="st2" d="M415.51,140.56c0.87-0.83,3.68-0.39,3.78,0.28c0.1,0.66-2.38,1.95-3.48,1.45c-0.28-0.12-0.55-0.4-0.62-0.73
				C415.11,141.19,415.27,140.79,415.51,140.56z"/>
		</g>
		<g id="_x3C_Radial_Repeat_x3E__00000079450855188513259120000004024330481739709059_">
			<path class="st2" d="M416.01,136.64c1.18-0.23,3.31,1.66,3.03,2.28c-0.27,0.61-3.05,0.35-3.71-0.66
				c-0.17-0.26-0.24-0.63-0.13-0.95C415.33,136.95,415.68,136.7,416.01,136.64z"/>
		</g>
		<g id="_x3C_Radial_Repeat_x3E__00000086678894663209802810000010634366058895722423_">
			<path class="st2" d="M418.55,133.6c1.12,0.45,1.88,3.19,1.32,3.56c-0.56,0.37-2.76-1.36-2.77-2.56c0-0.3,0.14-0.66,0.41-0.87
				C417.81,133.5,418.24,133.48,418.55,133.6z"/>
		</g>
		<g id="_x3C_Radial_Repeat_x3E__00000178180783918613588390000017437213991864991873_">
			<path class="st2" d="M422.33,132.43c0.7,0.98-0.14,3.7-0.81,3.71c-0.67,0.01-1.59-2.63-0.94-3.65c0.16-0.26,0.47-0.48,0.81-0.51
				C421.77,131.94,422.13,132.15,422.33,132.43z"/>
		</g>
		<g id="_x3C_Radial_Repeat_x3E__00000170244304657153215080000008185157619273972925_">
			<path class="st2" d="M426.14,133.48c0.06,1.2-2.12,3.04-2.69,2.68c-0.56-0.35,0.09-3.07,1.18-3.58c0.28-0.13,0.66-0.15,0.96,0.01
				C425.93,132.76,426.12,133.14,426.14,133.48z"/>
		</g>
		<g id="_x3C_Radial_Repeat_x3E__00000002349986552848446490000016163489792538137229_">
			<path class="st2" d="M428.78,136.42c-0.6,1.04-3.42,1.41-3.71,0.8c-0.28-0.6,1.73-2.54,2.93-2.37c0.3,0.04,0.64,0.23,0.8,0.53
				C428.99,135.71,428.95,136.13,428.78,136.42z"/>
		</g>
		<g id="_x3C_Radial_Repeat_x3E__00000119808067294169648880000000469705820588459435_">
			<path class="st2" d="M429.41,140.33c-1.07,0.55-3.64-0.67-3.55-1.33c0.09-0.66,2.83-1.2,3.75-0.41c0.23,0.2,0.41,0.54,0.39,0.88
				C429.97,139.84,429.71,140.17,429.41,140.33z"/>
		</g>
		<g id="_x3C_Radial_Repeat_x3E__00000088091654733564479520000015231597869584231334_">
			<path class="st2" d="M427.83,143.95c-1.2-0.11-2.7-2.53-2.27-3.04c0.43-0.51,3.03,0.52,3.38,1.68c0.09,0.29,0.06,0.67-0.15,0.95
				C428.56,143.85,428.16,143.98,427.83,143.95z"/>
		</g>
	</g>
	<g>
		<g id="_x3C_Radial_Repeat_x3E__00000154396339803176626990000009108621552411934651_">
			<path class="st2" d="M263.31,155.61c-0.91-0.71-0.87-3.43-0.25-3.61c0.61-0.19,2.16,1.98,1.85,3.09
				c-0.08,0.28-0.3,0.57-0.61,0.69C263.95,155.91,263.56,155.81,263.31,155.61z"/>
		</g>
		<g id="_x3C_Radial_Repeat_x3E__00000027576260387952505500000016656831142074180004_">
			<path class="st2" d="M259.53,155.68c-0.38-1.09,1.12-3.35,1.74-3.18c0.61,0.17,0.75,2.84-0.12,3.6
				c-0.22,0.19-0.56,0.32-0.88,0.25C259.91,156.28,259.63,155.98,259.53,155.68z"/>
		</g>
		<g id="_x3C_Radial_Repeat_x3E__00000104707205336468647140000004543034536344582027_">
			<path class="st2" d="M256.32,153.69c0.27-1.12,2.76-2.21,3.18-1.73c0.42,0.48-0.91,2.79-2.05,2.96
				c-0.29,0.04-0.64-0.04-0.88-0.27C256.32,154.4,256.24,154,256.32,153.69z"/>
		</g>
		<g id="_x3C_Radial_Repeat_x3E__00000055698986509924742400000002750807006981107596_">
			<path class="st2" d="M254.69,150.28c0.83-0.8,3.52-0.37,3.61,0.27c0.1,0.63-2.27,1.86-3.32,1.39c-0.27-0.12-0.52-0.38-0.59-0.7
				C254.31,150.88,254.46,150.5,254.69,150.28z"/>
		</g>
		<g id="_x3C_Radial_Repeat_x3E__00000093896488289144214920000001814361198273006236_">
			<path class="st2" d="M255.16,146.53c1.13-0.22,3.16,1.59,2.9,2.18c-0.26,0.58-2.92,0.34-3.55-0.63c-0.16-0.24-0.23-0.6-0.12-0.91
				C254.52,146.83,254.85,146.59,255.16,146.53z"/>
		</g>
		<g id="_x3C_Radial_Repeat_x3E__00000069368799908574380920000017522781215461994687_">
			<path class="st2" d="M257.59,143.64c1.07,0.43,1.8,3.04,1.26,3.4c-0.53,0.35-2.63-1.29-2.64-2.45c0-0.29,0.13-0.63,0.39-0.83
				C256.89,143.53,257.29,143.52,257.59,143.64z"/>
		</g>
		<g id="_x3C_Radial_Repeat_x3E__00000044899544934188032460000001272530006224109198_">
			<path class="st2" d="M261.2,142.51c0.67,0.94-0.13,3.53-0.78,3.54c-0.64,0.01-1.52-2.51-0.9-3.49c0.16-0.25,0.45-0.46,0.78-0.49
				C260.66,142.04,261.01,142.25,261.2,142.51z"/>
		</g>
		<g id="_x3C_Radial_Repeat_x3E__00000018958325776008563970000006725830533460607160_">
			<path class="st2" d="M264.84,143.51c0.06,1.15-2.02,2.9-2.57,2.56c-0.54-0.34,0.08-2.93,1.13-3.42c0.26-0.12,0.63-0.14,0.92,0.01
				C264.64,142.83,264.82,143.19,264.84,143.51z"/>
		</g>
		<g id="_x3C_Radial_Repeat_x3E__00000174576512408914425380000015667279986734291107_">
			<path class="st2" d="M267.36,146.33c-0.57,1-3.27,1.35-3.54,0.76c-0.27-0.58,1.66-2.42,2.8-2.27c0.29,0.04,0.61,0.22,0.77,0.51
				C267.56,145.64,267.52,146.05,267.36,146.33z"/>
		</g>
		<g id="_x3C_Radial_Repeat_x3E__00000086658391921012216740000010851127644150574234_">
			<path class="st2" d="M267.96,150.06c-1.02,0.53-3.48-0.64-3.39-1.27c0.08-0.63,2.7-1.14,3.58-0.39c0.22,0.19,0.39,0.51,0.37,0.84
				C268.5,149.59,268.25,149.91,267.96,150.06z"/>
		</g>
		<g id="_x3C_Radial_Repeat_x3E__00000114782974223150009420000008549389364908631197_">
			<path class="st2" d="M266.45,153.52c-1.15-0.11-2.58-2.41-2.17-2.91c0.41-0.49,2.89,0.5,3.22,1.61c0.08,0.28,0.05,0.64-0.14,0.91
				C267.15,153.42,266.77,153.55,266.45,153.52z"/>
		</g>
	</g>
	<g>
		<g id="_x3C_Radial_Repeat_x3E__00000124152998541671579450000002431939986305697975_">
			<path class="st2" d="M354.28,148.1c-0.61-0.47-0.58-2.29-0.17-2.42c0.41-0.12,1.45,1.33,1.23,2.07c-0.05,0.19-0.2,0.38-0.41,0.46
				C354.71,148.3,354.44,148.23,354.28,148.1z"/>
		</g>
		<g id="_x3C_Radial_Repeat_x3E__00000062877096399680738690000017343793789680067471_">
			<path class="st2" d="M351.75,148.14c-0.25-0.73,0.75-2.24,1.17-2.12c0.41,0.12,0.5,1.9-0.08,2.41c-0.15,0.13-0.38,0.21-0.59,0.17
				C352.01,148.54,351.82,148.34,351.75,148.14z"/>
		</g>
		<g id="_x3C_Radial_Repeat_x3E__00000139256178347690948540000002135559058541845632_">
			<path class="st2" d="M349.6,146.81c0.18-0.75,1.84-1.48,2.13-1.16c0.28,0.32-0.61,1.87-1.37,1.98c-0.19,0.03-0.43-0.03-0.59-0.18
				C349.6,147.29,349.55,147.02,349.6,146.81z"/>
		</g>
		<g id="_x3C_Radial_Repeat_x3E__00000003096184805391721100000011024114943879745700_">
			<path class="st2" d="M348.52,144.54c0.56-0.53,2.35-0.25,2.42,0.18c0.06,0.42-1.52,1.24-2.22,0.93c-0.18-0.08-0.35-0.25-0.4-0.47
				C348.26,144.93,348.36,144.68,348.52,144.54z"/>
		</g>
		<g id="_x3C_Radial_Repeat_x3E__00000119082018450791321920000010310750711308046270_">
			<path class="st2" d="M348.83,142.03c0.75-0.15,2.11,1.06,1.94,1.46c-0.17,0.39-1.95,0.22-2.37-0.42
				c-0.11-0.16-0.16-0.4-0.08-0.61C348.4,142.23,348.62,142.07,348.83,142.03z"/>
		</g>
		<g id="_x3C_Radial_Repeat_x3E__00000096035526938324719440000017440378665698009534_">
			<path class="st2" d="M350.45,140.09c0.71,0.28,1.2,2.03,0.84,2.27c-0.36,0.23-1.76-0.87-1.77-1.64c0-0.19,0.09-0.42,0.26-0.56
				C349.98,140.03,350.26,140.01,350.45,140.09z"/>
		</g>
		<g id="_x3C_Radial_Repeat_x3E__00000049923482750157976390000000975355722943933069_">
			<path class="st2" d="M352.86,139.34c0.45,0.63-0.09,2.36-0.52,2.37c-0.43,0-1.01-1.68-0.6-2.33c0.1-0.16,0.3-0.31,0.52-0.33
				C352.51,139.03,352.74,139.17,352.86,139.34z"/>
		</g>
		<g id="_x3C_Radial_Repeat_x3E__00000116207061595887825140000004738031333763494806_">
			<path class="st2" d="M355.3,140.01c0.04,0.77-1.35,1.94-1.72,1.71c-0.36-0.23,0.06-1.96,0.76-2.29c0.18-0.08,0.42-0.1,0.61,0.01
				C355.17,139.56,355.29,139.8,355.3,140.01z"/>
		</g>
		<g id="_x3C_Radial_Repeat_x3E__00000000210699534936748640000010882046511249764796_">
			<path class="st2" d="M356.98,141.89c-0.38,0.67-2.18,0.9-2.37,0.51c-0.18-0.39,1.11-1.62,1.87-1.51
				c0.19,0.03,0.41,0.15,0.51,0.34C357.12,141.44,357.09,141.71,356.98,141.89z"/>
		</g>
		<g id="_x3C_Radial_Repeat_x3E__00000145749003121434993720000015095445410333273765_">
			<path class="st2" d="M357.39,144.38c-0.68,0.35-2.32-0.42-2.27-0.85c0.06-0.42,1.81-0.76,2.39-0.26
				c0.15,0.13,0.26,0.34,0.25,0.56C357.75,144.07,357.58,144.29,357.39,144.38z"/>
		</g>
		<g id="_x3C_Radial_Repeat_x3E__00000103979876141249838050000017293453591946738109_">
			<path class="st2" d="M356.38,146.7c-0.77-0.07-1.73-1.61-1.45-1.94c0.28-0.32,1.93,0.33,2.16,1.07c0.06,0.19,0.04,0.43-0.09,0.61
				C356.85,146.63,356.59,146.72,356.38,146.7z"/>
		</g>
	</g>
	<g>
		<g id="_x3C_Radial_Repeat_x3E__00000174589755797732835480000002432177960262646179_">
			<path class="st2" d="M374.14,162.74c-0.5-0.39-0.48-1.88-0.14-1.98c0.33-0.1,1.19,1.09,1.01,1.7c-0.04,0.15-0.17,0.31-0.33,0.38
				C374.49,162.9,374.28,162.85,374.14,162.74z"/>
		</g>
		<g id="_x3C_Radial_Repeat_x3E__00000129196897684575747110000005814183986407885751_">
			<path class="st2" d="M372.06,162.78c-0.21-0.6,0.62-1.84,0.96-1.74c0.34,0.09,0.41,1.56-0.07,1.98
				c-0.12,0.11-0.31,0.17-0.48,0.14C372.28,163.1,372.12,162.94,372.06,162.78z"/>
		</g>
		<g id="_x3C_Radial_Repeat_x3E__00000093889989301693891560000002310407138555045298_">
			<path class="st2" d="M370.3,161.68c0.15-0.61,1.51-1.21,1.75-0.95c0.23,0.26-0.5,1.53-1.12,1.63c-0.16,0.02-0.35-0.02-0.48-0.15
				C370.3,162.07,370.26,161.85,370.3,161.68z"/>
		</g>
		<g id="_x3C_Radial_Repeat_x3E__00000121973213092485648790000015872218091010217919_">
			<path class="st2" d="M369.41,159.81c0.46-0.44,1.93-0.2,1.98,0.15c0.05,0.35-1.25,1.02-1.82,0.76c-0.15-0.07-0.29-0.21-0.33-0.38
				C369.2,160.14,369.28,159.93,369.41,159.81z"/>
		</g>
		<g id="_x3C_Radial_Repeat_x3E__00000095319558875779543800000010808380464900198052_">
			<path class="st2" d="M369.67,157.76c0.62-0.12,1.73,0.87,1.59,1.19c-0.14,0.32-1.6,0.18-1.95-0.35c-0.09-0.13-0.13-0.33-0.07-0.5
				C369.31,157.92,369.5,157.79,369.67,157.76z"/>
		</g>
		<g id="_x3C_Radial_Repeat_x3E__00000170243159677522345060000006260000197818720398_">
			<path class="st2" d="M371,156.17c0.59,0.23,0.99,1.67,0.69,1.86c-0.29,0.19-1.45-0.71-1.45-1.34c0-0.16,0.07-0.35,0.21-0.46
				C370.61,156.11,370.84,156.1,371,156.17z"/>
		</g>
		<g id="_x3C_Radial_Repeat_x3E__00000128449271941925559180000015342965792028449458_">
			<path class="st2" d="M372.98,155.55c0.37,0.51-0.07,1.94-0.43,1.94c-0.35,0-0.83-1.38-0.49-1.91c0.09-0.13,0.25-0.25,0.43-0.27
				C372.68,155.29,372.88,155.41,372.98,155.55z"/>
		</g>
		<g id="_x3C_Radial_Repeat_x3E__00000001648975555977528650000005775412608444212627_">
			<path class="st2" d="M374.98,156.1c0.03,0.63-1.11,1.59-1.41,1.4c-0.3-0.19,0.05-1.61,0.62-1.88c0.14-0.07,0.34-0.08,0.5,0.01
				C374.87,155.73,374.97,155.93,374.98,156.1z"/>
		</g>
		<g id="_x3C_Radial_Repeat_x3E__00000019636584584050448870000009929574645247326130_">
			<path class="st2" d="M376.36,157.64c-0.31,0.55-1.79,0.74-1.94,0.42c-0.15-0.32,0.91-1.33,1.54-1.24
				c0.16,0.02,0.33,0.12,0.42,0.28C376.47,157.27,376.45,157.49,376.36,157.64z"/>
		</g>
		<g id="_x3C_Radial_Repeat_x3E__00000034066166148461692930000006831374216654978740_">
			<path class="st2" d="M376.69,159.69c-0.56,0.29-1.91-0.35-1.86-0.7c0.05-0.35,1.48-0.63,1.96-0.22c0.12,0.1,0.22,0.28,0.2,0.46
				C376.99,159.43,376.85,159.61,376.69,159.69z"/>
		</g>
		<g id="_x3C_Radial_Repeat_x3E__00000125573132594510907970000009724290203775911063_">
			<path class="st2" d="M375.86,161.59c-0.63-0.06-1.42-1.32-1.19-1.59c0.23-0.27,1.59,0.27,1.77,0.88c0.05,0.15,0.03,0.35-0.08,0.5
				C376.25,161.54,376.04,161.61,375.86,161.59z"/>
		</g>
	</g>
	<g>
		<g id="_x3C_Radial_Repeat_x3E__00000008112687654096183060000014900690775535609752_">
			<path class="st2" d="M294.14,136.64c-0.61-0.47-0.58-2.29-0.17-2.42c0.41-0.12,1.45,1.33,1.23,2.07
				c-0.05,0.19-0.2,0.38-0.41,0.46C294.58,136.84,294.31,136.77,294.14,136.64z"/>
		</g>
		<g id="_x3C_Radial_Repeat_x3E__00000144336315483747392110000006179336005335627401_">
			<path class="st2" d="M291.62,136.69c-0.25-0.73,0.75-2.24,1.17-2.12c0.41,0.12,0.5,1.9-0.08,2.41c-0.15,0.13-0.38,0.21-0.59,0.17
				C291.88,137.08,291.69,136.89,291.62,136.69z"/>
		</g>
		<g id="_x3C_Radial_Repeat_x3E__00000004512744149089344070000007371485689597541014_">
			<path class="st2" d="M289.47,135.36c0.18-0.75,1.84-1.48,2.13-1.16c0.28,0.32-0.61,1.87-1.37,1.98
				c-0.19,0.03-0.43-0.03-0.59-0.18C289.47,135.83,289.42,135.56,289.47,135.36z"/>
		</g>
		<g id="_x3C_Radial_Repeat_x3E__00000154412994736009853760000012717890244504782977_">
			<path class="st2" d="M288.39,133.08c0.56-0.53,2.35-0.25,2.42,0.18c0.06,0.42-1.52,1.24-2.22,0.93c-0.18-0.08-0.35-0.25-0.4-0.47
				C288.13,133.48,288.23,133.23,288.39,133.08z"/>
		</g>
		<g id="_x3C_Radial_Repeat_x3E__00000017475461851751155450000017640015175681883282_">
			<path class="st2" d="M288.7,130.57c0.75-0.15,2.11,1.06,1.94,1.46c-0.17,0.39-1.95,0.22-2.37-0.42c-0.11-0.16-0.16-0.4-0.08-0.61
				C288.27,130.77,288.49,130.61,288.7,130.57z"/>
		</g>
		<g id="_x3C_Radial_Repeat_x3E__00000037658952602117897860000014535226685029257663_">
			<path class="st2" d="M290.32,128.64c0.71,0.28,1.2,2.03,0.84,2.27c-0.36,0.23-1.76-0.87-1.77-1.64c0-0.19,0.09-0.42,0.26-0.56
				C289.85,128.57,290.13,128.56,290.32,128.64z"/>
		</g>
		<g id="_x3C_Radial_Repeat_x3E__00000032638523279528772170000017383499225987956374_">
			<path class="st2" d="M292.73,127.88c0.45,0.63-0.09,2.36-0.52,2.37c-0.43,0-1.01-1.68-0.6-2.33c0.1-0.16,0.3-0.31,0.52-0.33
				C292.37,127.57,292.61,127.71,292.73,127.88z"/>
		</g>
		<g id="_x3C_Radial_Repeat_x3E__00000178184745062538149760000007692868884446705306_">
			<path class="st2" d="M295.17,128.55c0.04,0.77-1.35,1.94-1.72,1.71c-0.36-0.23,0.06-1.96,0.76-2.29c0.18-0.08,0.42-0.1,0.61,0.01
				C295.03,128.1,295.16,128.34,295.17,128.55z"/>
		</g>
		<g id="_x3C_Radial_Repeat_x3E__00000175288599899795209850000009925594915240056963_">
			<path class="st2" d="M296.85,130.43c-0.38,0.67-2.18,0.9-2.37,0.51c-0.18-0.39,1.11-1.62,1.87-1.51
				c0.19,0.03,0.41,0.15,0.51,0.34C296.99,129.98,296.96,130.25,296.85,130.43z"/>
		</g>
		<g id="_x3C_Radial_Repeat_x3E__00000177451732673294936830000012999378399759537079_">
			<path class="st2" d="M297.26,132.93c-0.68,0.35-2.32-0.42-2.27-0.85c0.06-0.42,1.81-0.76,2.39-0.26
				c0.15,0.13,0.26,0.34,0.25,0.56C297.62,132.62,297.45,132.83,297.26,132.93z"/>
		</g>
		<g id="_x3C_Radial_Repeat_x3E__00000160177969799738527620000008401126110876478352_">
			<path class="st2" d="M296.25,135.24c-0.77-0.07-1.73-1.61-1.45-1.94c0.28-0.32,1.93,0.33,2.16,1.07
				c0.06,0.19,0.04,0.43-0.09,0.61C296.72,135.17,296.46,135.26,296.25,135.24z"/>
		</g>
	</g>
</g>
</svg>
